# MagicaVoxel @ Ephtracy

# group
o 

# material
mtllib Block.mtl
usemtl palette

# normals
vn -1 0 0
vn 1 0 0
vn 0 0 1
vn 0 0 -1
vn 0 -1 0
vn 0 1 0

# texcoords
vt 0.369141 0.5
vt 0.771484 0.5
vt 0.900391 0.5

# verts
v -0.5 0 0.5
v -0.5 0 -0.5
v -0.5 0.8 0.5
v -0.5 0.8 -0.5
v -0.5 0.9 0.3
v -0.5 0.9 0.2
v -0.5 1 0.5
v -0.5 1 0.3
v -0.5 1 0.2
v -0.5 1 -0.5
v 0.5 0 0.5
v 0.5 0 -0.5
v 0.5 0.8 0.5
v 0.5 0.8 -0.5
v 0.5 0.9 0.5
v 0.5 0.9 0.4
v 0.5 0.9 -0.2
v 0.5 0.9 -0.3
v 0.5 1 0.5
v 0.5 1 0.4
v 0.5 1 -0.2
v 0.5 1 -0.3
v 0.5 1 -0.5
v -0.5 0 0.5
v -0.5 0.8 0.5
v -0.5 1 0.5
v -0.1 0.9 0.5
v -0.1 1 0.5
v 0 0.9 0.5
v 0 1 0.5
v 0.4 0.9 0.5
v 0.4 1 0.5
v 0.5 0 0.5
v 0.5 0.8 0.5
v 0.5 0.9 0.5
v 0.5 1 0.5
v -0.5 0 -0.5
v -0.5 0.8 -0.5
v -0.5 1 -0.5
v -0.1 0.9 -0.5
v -0.1 1 -0.5
v 0 0.9 -0.5
v 0 1 -0.5
v 0.5 0 -0.5
v 0.5 0.8 -0.5
v 0.5 1 -0.5
v -0.5 0 0.5
v 0.5 0 0.5
v -0.5 0 -0.5
v 0.5 0 -0.5
v -0.5 1 0.5
v -0.1 1 0.5
v 0 1 0.5
v 0.4 1 0.5
v 0.5 1 0.5
v -0.3 1 0.4
v -0.2 1 0.4
v -0.1 1 0.4
v 0 1 0.4
v 0.1 1 0.4
v 0.2 1 0.4
v 0.4 1 0.4
v 0.5 1 0.4
v -0.5 1 0.3
v -0.4 1 0.3
v -0.3 1 0.3
v -0.2 1 0.3
v 0.1 1 0.3
v 0.2 1 0.3
v 0.3 1 0.3
v 0.4 1 0.3
v -0.5 1 0.2
v -0.4 1 0.2
v -0.1 1 0.2
v 0 1 0.2
v 0.3 1 0.2
v 0.4 1 0.2
v -0.3 1 0.1
v -0.2 1 0.1
v -0.1 1 0.1
v 0 1 0.1
v 0.2 1 0.1
v 0.3 1 0.1
v -0.4 1 0
v -0.3 1 0
v -0.2 1 0
v 0 1 0
v 0.1 1 0
v 0.2 1 0
v 0.3 1 0
v 0.4 1 0
v -0.4 1 -0.1
v -0.3 1 -0.1
v -0.2 1 -0.1
v 0 1 -0.1
v 0.1 1 -0.1
v 0.2 1 -0.1
v 0.3 1 -0.1
v 0.4 1 -0.1
v -0.3 1 -0.2
v -0.2 1 -0.2
v -0.1 1 -0.2
v 0 1 -0.2
v 0.1 1 -0.2
v 0.2 1 -0.2
v 0.4 1 -0.2
v 0.5 1 -0.2
v -0.4 1 -0.3
v -0.3 1 -0.3
v -0.1 1 -0.3
v 0 1 -0.3
v 0.2 1 -0.3
v 0.3 1 -0.3
v 0.4 1 -0.3
v 0.5 1 -0.3
v -0.4 1 -0.4
v -0.3 1 -0.4
v -0.1 1 -0.4
v 0 1 -0.4
v 0.2 1 -0.4
v 0.3 1 -0.4
v -0.5 1 -0.5
v -0.1 1 -0.5
v 0 1 -0.5
v 0.5 1 -0.5

# faces
f 3/1/1 2/1/1 1/1/1
f 4/1/1 2/1/1 3/1/1
f 5/3/1 4/3/1 3/3/1
f 6/3/1 4/3/1 5/3/1
f 7/3/1 5/3/1 3/3/1
f 8/2/1 6/2/1 5/2/1
f 8/3/1 5/3/1 7/3/1
f 9/3/1 4/3/1 6/3/1
f 9/2/1 6/2/1 8/2/1
f 10/3/1 4/3/1 9/3/1
f 11/1/2 12/1/2 13/1/2
f 13/1/2 12/1/2 14/1/2
f 13/3/2 14/3/2 15/3/2
f 15/3/2 14/3/2 16/3/2
f 16/3/2 14/3/2 17/3/2
f 17/3/2 14/3/2 18/3/2
f 15/2/2 16/2/2 19/2/2
f 16/3/2 17/3/2 20/3/2
f 19/2/2 16/2/2 20/2/2
f 17/2/2 18/2/2 21/2/2
f 20/3/2 17/3/2 21/3/2
f 18/3/2 14/3/2 22/3/2
f 21/2/2 18/2/2 22/2/2
f 22/3/2 14/3/2 23/3/2
f 27/3/3 26/3/3 25/3/3
f 28/3/3 26/3/3 27/3/3
f 29/3/3 27/3/3 25/3/3
f 29/2/3 28/2/3 27/2/3
f 30/2/3 28/2/3 29/2/3
f 31/3/3 29/3/3 25/3/3
f 31/3/3 30/3/3 29/3/3
f 32/3/3 30/3/3 31/3/3
f 33/1/3 25/1/3 24/1/3
f 34/3/3 31/3/3 25/3/3
f 34/1/3 25/1/3 33/1/3
f 35/2/3 32/2/3 31/2/3
f 35/3/3 31/3/3 34/3/3
f 36/2/3 32/2/3 35/2/3
f 38/3/4 39/3/4 40/3/4
f 40/3/4 39/3/4 41/3/4
f 38/3/4 40/3/4 42/3/4
f 40/2/4 41/2/4 42/2/4
f 42/2/4 41/2/4 43/2/4
f 37/1/4 38/1/4 44/1/4
f 38/3/4 42/3/4 45/3/4
f 44/1/4 38/1/4 45/1/4
f 42/3/4 43/3/4 45/3/4
f 45/3/4 43/3/4 46/3/4
f 49/1/5 48/1/5 47/1/5
f 50/1/5 48/1/5 49/1/5
f 51/3/6 52/3/6 56/3/6
f 56/3/6 52/3/6 57/3/6
f 52/2/6 53/2/6 58/2/6
f 57/3/6 52/3/6 58/3/6
f 53/3/6 54/3/6 59/3/6
f 58/2/6 53/2/6 59/2/6
f 59/3/6 54/3/6 60/3/6
f 60/3/6 54/3/6 61/3/6
f 54/2/6 55/2/6 62/2/6
f 61/3/6 54/3/6 62/3/6
f 62/2/6 55/2/6 63/2/6
f 51/3/6 56/3/6 64/3/6
f 64/3/6 56/3/6 65/3/6
f 56/2/6 57/2/6 66/2/6
f 65/3/6 56/3/6 66/3/6
f 57/3/6 58/3/6 67/3/6
f 66/2/6 57/2/6 67/2/6
f 58/3/6 59/3/6 67/3/6
f 59/3/6 60/3/6 67/3/6
f 60/2/6 61/2/6 68/2/6
f 67/3/6 60/3/6 68/3/6
f 62/3/6 63/3/6 69/3/6
f 68/2/6 61/2/6 69/2/6
f 61/3/6 62/3/6 69/3/6
f 69/3/6 63/3/6 70/3/6
f 70/3/6 63/3/6 71/3/6
f 64/2/6 65/2/6 72/2/6
f 66/3/6 67/3/6 73/3/6
f 72/2/6 65/2/6 73/2/6
f 65/3/6 66/3/6 73/3/6
f 67/3/6 68/3/6 73/3/6
f 69/3/6 70/3/6 73/3/6
f 68/3/6 69/3/6 73/3/6
f 73/3/6 70/3/6 74/3/6
f 74/3/6 70/3/6 75/3/6
f 70/2/6 71/2/6 76/2/6
f 75/3/6 70/3/6 76/3/6
f 71/3/6 63/3/6 77/3/6
f 76/2/6 71/2/6 77/2/6
f 72/3/6 73/3/6 78/3/6
f 73/3/6 74/3/6 78/3/6
f 78/3/6 74/3/6 79/3/6
f 74/2/6 75/2/6 80/2/6
f 79/3/6 74/3/6 80/3/6
f 75/3/6 76/3/6 81/3/6
f 80/2/6 75/2/6 81/2/6
f 76/3/6 77/3/6 81/3/6
f 81/3/6 77/3/6 82/3/6
f 82/3/6 77/3/6 83/3/6
f 72/3/6 78/3/6 84/3/6
f 78/2/6 79/2/6 85/2/6
f 84/3/6 78/3/6 85/3/6
f 79/3/6 80/3/6 86/3/6
f 85/2/6 79/2/6 86/2/6
f 80/3/6 81/3/6 86/3/6
f 81/3/6 82/3/6 86/3/6
f 86/3/6 82/3/6 87/3/6
f 87/3/6 82/3/6 88/3/6
f 82/2/6 83/2/6 89/2/6
f 88/3/6 82/3/6 89/3/6
f 83/3/6 77/3/6 90/3/6
f 89/2/6 83/2/6 90/2/6
f 77/3/6 63/3/6 91/3/6
f 90/3/6 77/3/6 91/3/6
f 84/2/6 85/2/6 92/2/6
f 72/3/6 84/3/6 92/3/6
f 85/3/6 86/3/6 93/3/6
f 92/2/6 85/2/6 93/2/6
f 86/3/6 87/3/6 93/3/6
f 93/3/6 87/3/6 94/3/6
f 87/2/6 88/2/6 95/2/6
f 94/3/6 87/3/6 95/3/6
f 89/3/6 90/3/6 96/3/6
f 95/2/6 88/2/6 96/2/6
f 88/3/6 89/3/6 96/3/6
f 96/3/6 90/3/6 97/3/6
f 90/2/6 91/2/6 98/2/6
f 97/3/6 90/3/6 98/3/6
f 91/3/6 63/3/6 99/3/6
f 98/2/6 91/2/6 99/2/6
f 92/3/6 93/3/6 100/3/6
f 93/2/6 94/2/6 100/2/6
f 94/3/6 95/3/6 101/3/6
f 100/2/6 94/2/6 101/2/6
f 95/3/6 96/3/6 101/3/6
f 101/3/6 96/3/6 102/3/6
f 102/3/6 96/3/6 103/3/6
f 96/2/6 97/2/6 104/2/6
f 103/3/6 96/3/6 104/3/6
f 97/3/6 98/3/6 105/3/6
f 104/2/6 97/2/6 105/2/6
f 98/3/6 99/3/6 105/3/6
f 99/3/6 63/3/6 106/3/6
f 105/3/6 99/3/6 106/3/6
f 106/3/6 63/3/6 107/3/6
f 92/3/6 100/3/6 108/3/6
f 101/3/6 102/3/6 108/3/6
f 72/3/6 92/3/6 108/3/6
f 100/3/6 101/3/6 108/3/6
f 108/3/6 102/3/6 109/3/6
f 102/2/6 103/2/6 110/2/6
f 109/3/6 102/3/6 110/3/6
f 103/3/6 104/3/6 111/3/6
f 110/2/6 103/2/6 111/2/6
f 104/3/6 105/3/6 111/3/6
f 105/3/6 106/3/6 111/3/6
f 111/3/6 106/3/6 112/3/6
f 112/3/6 106/3/6 113/3/6
f 106/2/6 107/2/6 114/2/6
f 113/3/6 106/3/6 114/3/6
f 114/2/6 107/2/6 115/2/6
f 108/2/6 109/2/6 116/2/6
f 72/3/6 108/3/6 116/3/6
f 109/3/6 110/3/6 117/3/6
f 116/2/6 109/2/6 117/2/6
f 110/3/6 111/3/6 117/3/6
f 111/3/6 112/3/6 117/3/6
f 117/3/6 112/3/6 118/3/6
f 118/3/6 112/3/6 119/3/6
f 112/2/6 113/2/6 120/2/6
f 119/3/6 112/3/6 120/3/6
f 114/3/6 115/3/6 121/3/6
f 120/2/6 113/2/6 121/2/6
f 113/3/6 114/3/6 121/3/6
f 72/3/6 116/3/6 122/3/6
f 117/3/6 118/3/6 122/3/6
f 116/3/6 117/3/6 122/3/6
f 118/2/6 119/2/6 123/2/6
f 122/3/6 118/3/6 123/3/6
f 119/3/6 120/3/6 124/3/6
f 123/2/6 119/2/6 124/2/6
f 120/3/6 121/3/6 124/3/6
f 121/3/6 115/3/6 125/3/6
f 124/3/6 121/3/6 125/3/6
