# MagicaVoxel @ Ephtracy

# group
o 

# material
mtllib oneLagrlfahtwkqdl.mtl
usemtl palette

# normals
vn -1 0 0
vn 1 0 0
vn 0 0 1
vn 0 0 -1
vn 0 -1 0
vn 0 1 0

# texcoords
vt 0.958984 0.5
vt 0.986328 0.5
vt 0.994141 0.5

# verts
v -0.3 1.2 0.2
v -0.3 1.2 -0.1
v -0.3 1.3 -0.1
v -0.3 1.3 -0.2
v -0.3 1.4 -0.1
v -0.3 1.4 -0.2
v -0.3 1.5 0.2
v -0.3 1.5 -0.1
v -0.2 1.1 0.2
v -0.2 1.1 -0.1
v -0.2 1.2 0.3
v -0.2 1.2 0.2
v -0.2 1.2 -0.1
v -0.2 1.2 -0.2
v -0.2 1.3 -0.1
v -0.2 1.3 -0.2
v -0.2 1.4 -0.1
v -0.2 1.4 -0.2
v -0.2 1.5 0.3
v -0.2 1.5 0.2
v -0.2 1.5 -0.1
v -0.2 1.5 -0.2
v -0.2 1.6 0.2
v -0.2 1.6 -0.1
v -0.1 0 0.4
v -0.1 0 -0.1
v -0.1 0.1 0.4
v -0.1 0.1 0.2
v -0.1 0.2 0.2
v -0.1 0.2 0.1
v -0.1 0.4 0.1
v -0.1 0.4 -0.1
v -0.1 1.1 0.1
v -0.1 1.1 -0.1
v -0.1 1.1 -0.2
v -0.1 1.2 -0.1
v -0.1 1.2 -0.2
v -0.1 1.2 -0.3
v -0.1 1.5 -0.1
v -0.1 1.5 -0.2
v -0.1 1.5 -0.3
v -0.1 1.6 0.1
v -0.1 1.6 -0.1
v -0.1 1.6 -0.2
v -0.1 1.7 0.1
v -0.1 1.7 -0.1
v 0.1 0 0.4
v 0.1 0 -0.1
v 0.1 0.1 0.4
v 0.1 0.1 0.2
v 0.1 0.2 0.2
v 0.1 0.2 0.1
v 0.1 0.4 0.1
v 0.1 0.4 -0.1
v 0.1 1.1 0.1
v 0.1 1.1 -0.1
v 0.1 1.1 -0.2
v 0.1 1.2 -0.1
v 0.1 1.2 -0.2
v 0.1 1.2 -0.3
v 0.1 1.5 -0.1
v 0.1 1.5 -0.2
v 0.1 1.5 -0.3
v 0.1 1.6 0.1
v 0.1 1.6 -0.1
v 0.1 1.6 -0.2
v 0.1 1.7 0.1
v 0.1 1.7 -0.1
v 0.2 1.1 0.2
v 0.2 1.1 -0.1
v 0.2 1.2 0.3
v 0.2 1.2 0.2
v 0.2 1.2 -0.1
v 0.2 1.2 -0.2
v 0.2 1.3 -0.1
v 0.2 1.3 -0.2
v 0.2 1.4 -0.1
v 0.2 1.4 -0.2
v 0.2 1.5 0.3
v 0.2 1.5 0.2
v 0.2 1.5 -0.1
v 0.2 1.5 -0.2
v 0.2 1.6 0.2
v 0.2 1.6 -0.1
v 0.3 1.2 0.2
v 0.3 1.2 -0.1
v 0.3 1.3 -0.1
v 0.3 1.3 -0.2
v 0.3 1.4 -0.1
v 0.3 1.4 -0.2
v 0.3 1.5 0.2
v 0.3 1.5 -0.1
v -0.1 0 0.4
v -0.1 0.1 0.4
v 0.1 0 0.4
v 0.1 0.1 0.4
v -0.2 1.2 0.3
v -0.2 1.5 0.3
v -0.1 1.2 0.3
v -0.1 1.5 0.3
v 0.1 1.2 0.3
v 0.1 1.5 0.3
v 0.2 1.2 0.3
v 0.2 1.5 0.3
v -0.3 1.2 0.2
v -0.3 1.5 0.2
v -0.2 1.1 0.2
v -0.2 1.2 0.2
v -0.2 1.5 0.2
v -0.2 1.6 0.2
v -0.1 0.1 0.2
v -0.1 0.2 0.2
v -0.1 1.2 0.2
v -0.1 1.5 0.2
v 0.1 0.1 0.2
v 0.1 0.2 0.2
v 0.1 1.2 0.2
v 0.1 1.5 0.2
v 0.2 1.1 0.2
v 0.2 1.2 0.2
v 0.2 1.5 0.2
v 0.2 1.6 0.2
v 0.3 1.2 0.2
v 0.3 1.5 0.2
v -0.1 0.2 0.1
v -0.1 0.4 0.1
v -0.1 1.1 0.1
v -0.1 1.6 0.1
v -0.1 1.7 0.1
v 0.1 0.2 0.1
v 0.1 0.4 0.1
v 0.1 1.1 0.1
v 0.1 1.6 0.1
v 0.1 1.7 0.1
v -0.3 1.2 -0.1
v -0.3 1.3 -0.1
v -0.3 1.4 -0.1
v -0.3 1.5 -0.1
v -0.2 1.1 -0.1
v -0.2 1.2 -0.1
v -0.2 1.3 -0.1
v -0.2 1.4 -0.1
v -0.2 1.5 -0.1
v -0.2 1.6 -0.1
v -0.1 0 -0.1
v -0.1 0.4 -0.1
v -0.1 1.1 -0.1
v -0.1 1.2 -0.1
v -0.1 1.5 -0.1
v -0.1 1.6 -0.1
v -0.1 1.7 -0.1
v 0.1 0 -0.1
v 0.1 0.4 -0.1
v 0.1 1.1 -0.1
v 0.1 1.2 -0.1
v 0.1 1.5 -0.1
v 0.1 1.6 -0.1
v 0.1 1.7 -0.1
v 0.2 1.1 -0.1
v 0.2 1.2 -0.1
v 0.2 1.3 -0.1
v 0.2 1.4 -0.1
v 0.2 1.5 -0.1
v 0.2 1.6 -0.1
v 0.3 1.2 -0.1
v 0.3 1.3 -0.1
v 0.3 1.4 -0.1
v 0.3 1.5 -0.1
v -0.3 1.3 -0.2
v -0.3 1.4 -0.2
v -0.2 1.2 -0.2
v -0.2 1.3 -0.2
v -0.2 1.4 -0.2
v -0.2 1.5 -0.2
v -0.1 1.1 -0.2
v -0.1 1.2 -0.2
v -0.1 1.5 -0.2
v -0.1 1.6 -0.2
v 0.1 1.1 -0.2
v 0.1 1.2 -0.2
v 0.1 1.5 -0.2
v 0.1 1.6 -0.2
v 0.2 1.2 -0.2
v 0.2 1.3 -0.2
v 0.2 1.4 -0.2
v 0.2 1.5 -0.2
v 0.3 1.3 -0.2
v 0.3 1.4 -0.2
v -0.1 1.2 -0.3
v -0.1 1.5 -0.3
v 0.1 1.2 -0.3
v 0.1 1.5 -0.3
v -0.1 0 0.4
v 0.1 0 0.4
v -0.1 0 -0.1
v 0.1 0 -0.1
v -0.2 1.1 0.2
v 0.2 1.1 0.2
v -0.1 1.1 0.1
v 0.1 1.1 0.1
v -0.2 1.1 -0.1
v -0.1 1.1 -0.1
v 0.1 1.1 -0.1
v 0.2 1.1 -0.1
v -0.1 1.1 -0.2
v 0.1 1.1 -0.2
v -0.2 1.2 0.3
v -0.1 1.2 0.3
v 0.1 1.2 0.3
v 0.2 1.2 0.3
v -0.3 1.2 0.2
v -0.2 1.2 0.2
v -0.1 1.2 0.2
v 0.1 1.2 0.2
v 0.2 1.2 0.2
v 0.3 1.2 0.2
v -0.3 1.2 -0.1
v -0.2 1.2 -0.1
v -0.1 1.2 -0.1
v 0.1 1.2 -0.1
v 0.2 1.2 -0.1
v 0.3 1.2 -0.1
v -0.2 1.2 -0.2
v -0.1 1.2 -0.2
v 0.1 1.2 -0.2
v 0.2 1.2 -0.2
v -0.1 1.2 -0.3
v 0.1 1.2 -0.3
v -0.3 1.3 -0.1
v -0.2 1.3 -0.1
v 0.2 1.3 -0.1
v 0.3 1.3 -0.1
v -0.3 1.3 -0.2
v -0.2 1.3 -0.2
v 0.2 1.3 -0.2
v 0.3 1.3 -0.2
v -0.1 0.1 0.4
v 0.1 0.1 0.4
v -0.1 0.1 0.2
v 0.1 0.1 0.2
v -0.1 0.2 0.2
v 0.1 0.2 0.2
v -0.1 0.2 0.1
v 0.1 0.2 0.1
v -0.3 1.4 -0.1
v -0.2 1.4 -0.1
v 0.2 1.4 -0.1
v 0.3 1.4 -0.1
v -0.3 1.4 -0.2
v -0.2 1.4 -0.2
v 0.2 1.4 -0.2
v 0.3 1.4 -0.2
v -0.2 1.5 0.3
v -0.1 1.5 0.3
v 0.1 1.5 0.3
v 0.2 1.5 0.3
v -0.3 1.5 0.2
v -0.2 1.5 0.2
v -0.1 1.5 0.2
v 0.1 1.5 0.2
v 0.2 1.5 0.2
v 0.3 1.5 0.2
v -0.3 1.5 -0.1
v -0.2 1.5 -0.1
v -0.1 1.5 -0.1
v 0.1 1.5 -0.1
v 0.2 1.5 -0.1
v 0.3 1.5 -0.1
v -0.2 1.5 -0.2
v -0.1 1.5 -0.2
v 0.1 1.5 -0.2
v 0.2 1.5 -0.2
v -0.1 1.5 -0.3
v 0.1 1.5 -0.3
v -0.2 1.6 0.2
v 0.2 1.6 0.2
v -0.1 1.6 0.1
v 0.1 1.6 0.1
v -0.2 1.6 -0.1
v -0.1 1.6 -0.1
v 0.1 1.6 -0.1
v 0.2 1.6 -0.1
v -0.1 1.6 -0.2
v 0.1 1.6 -0.2
v -0.1 1.7 0.1
v 0.1 1.7 0.1
v -0.1 1.7 -0.1
v 0.1 1.7 -0.1

# faces
f 3/1/1 2/1/1 1/1/1
f 5/1/1 3/1/1 1/1/1
f 5/1/1 4/1/1 3/1/1
f 6/1/1 4/1/1 5/1/1
f 7/1/1 5/1/1 1/1/1
f 8/1/1 5/1/1 7/1/1
f 12/1/1 10/1/1 9/1/1
f 13/1/1 10/1/1 12/1/1
f 15/1/1 14/1/1 13/1/1
f 16/1/1 14/1/1 15/1/1
f 19/3/1 12/3/1 11/3/1
f 20/3/1 12/3/1 19/3/1
f 21/1/1 18/1/1 17/1/1
f 22/1/1 18/1/1 21/1/1
f 23/1/1 21/1/1 20/1/1
f 24/1/1 21/1/1 23/1/1
f 27/2/1 26/2/1 25/2/1
f 28/2/1 26/2/1 27/2/1
f 29/2/1 26/2/1 28/2/1
f 30/2/1 26/2/1 29/2/1
f 31/2/1 26/2/1 30/2/1
f 32/2/1 26/2/1 31/2/1
f 33/3/1 32/3/1 31/3/1
f 34/3/1 32/3/1 33/3/1
f 36/1/1 35/1/1 34/1/1
f 37/1/1 35/1/1 36/1/1
f 40/1/1 38/1/1 37/1/1
f 41/1/1 38/1/1 40/1/1
f 43/1/1 40/1/1 39/1/1
f 44/1/1 40/1/1 43/1/1
f 45/1/1 43/1/1 42/1/1
f 46/1/1 43/1/1 45/1/1
f 47/2/2 48/2/2 49/2/2
f 49/2/2 48/2/2 50/2/2
f 50/2/2 48/2/2 51/2/2
f 51/2/2 48/2/2 52/2/2
f 52/2/2 48/2/2 53/2/2
f 53/2/2 48/2/2 54/2/2
f 53/3/2 54/3/2 55/3/2
f 55/3/2 54/3/2 56/3/2
f 56/1/2 57/1/2 58/1/2
f 58/1/2 57/1/2 59/1/2
f 59/1/2 60/1/2 62/1/2
f 62/1/2 60/1/2 63/1/2
f 61/1/2 62/1/2 65/1/2
f 65/1/2 62/1/2 66/1/2
f 64/1/2 65/1/2 67/1/2
f 67/1/2 65/1/2 68/1/2
f 69/1/2 70/1/2 72/1/2
f 72/1/2 70/1/2 73/1/2
f 73/1/2 74/1/2 75/1/2
f 75/1/2 74/1/2 76/1/2
f 71/3/2 72/3/2 79/3/2
f 79/3/2 72/3/2 80/3/2
f 77/1/2 78/1/2 81/1/2
f 81/1/2 78/1/2 82/1/2
f 80/1/2 81/1/2 83/1/2
f 83/1/2 81/1/2 84/1/2
f 85/1/2 86/1/2 87/1/2
f 85/1/2 87/1/2 89/1/2
f 87/1/2 88/1/2 89/1/2
f 89/1/2 88/1/2 90/1/2
f 85/1/2 89/1/2 91/1/2
f 91/1/2 89/1/2 92/1/2
f 95/2/3 94/2/3 93/2/3
f 96/2/3 94/2/3 95/2/3
f 99/3/3 98/3/3 97/3/3
f 100/3/3 98/3/3 99/3/3
f 101/1/3 100/1/3 99/1/3
f 102/1/3 100/1/3 101/1/3
f 103/3/3 102/3/3 101/3/3
f 104/3/3 102/3/3 103/3/3
f 108/1/3 106/1/3 105/1/3
f 109/1/3 106/1/3 108/1/3
f 113/1/3 108/1/3 107/1/3
f 114/1/3 110/1/3 109/1/3
f 115/2/3 112/2/3 111/2/3
f 116/2/3 112/2/3 115/2/3
f 117/1/3 113/1/3 107/1/3
f 118/1/3 110/1/3 114/1/3
f 119/1/3 117/1/3 107/1/3
f 120/1/3 117/1/3 119/1/3
f 121/1/3 110/1/3 118/1/3
f 122/1/3 110/1/3 121/1/3
f 123/1/3 121/1/3 120/1/3
f 124/1/3 121/1/3 123/1/3
f 130/2/3 126/2/3 125/2/3
f 131/3/3 127/3/3 126/3/3
f 131/2/3 126/2/3 130/2/3
f 132/3/3 127/3/3 131/3/3
f 133/1/3 129/1/3 128/1/3
f 134/1/3 129/1/3 133/1/3
f 135/1/4 136/1/4 140/1/4
f 140/1/4 136/1/4 141/1/4
f 137/1/4 138/1/4 142/1/4
f 142/1/4 138/1/4 143/1/4
f 139/1/4 140/1/4 147/1/4
f 147/1/4 140/1/4 148/1/4
f 143/1/4 144/1/4 149/1/4
f 149/1/4 144/1/4 150/1/4
f 145/2/4 146/2/4 152/2/4
f 146/3/4 147/3/4 153/3/4
f 152/2/4 146/2/4 153/2/4
f 153/3/4 147/3/4 154/3/4
f 150/1/4 151/1/4 157/1/4
f 157/1/4 151/1/4 158/1/4
f 154/1/4 155/1/4 159/1/4
f 159/1/4 155/1/4 160/1/4
f 156/1/4 157/1/4 163/1/4
f 163/1/4 157/1/4 164/1/4
f 160/1/4 161/1/4 165/1/4
f 165/1/4 161/1/4 166/1/4
f 162/1/4 163/1/4 167/1/4
f 167/1/4 163/1/4 168/1/4
f 169/1/4 170/1/4 172/1/4
f 172/1/4 170/1/4 173/1/4
f 171/1/4 172/1/4 176/1/4
f 173/1/4 174/1/4 176/1/4
f 172/1/4 173/1/4 176/1/4
f 176/1/4 174/1/4 177/1/4
f 175/1/4 176/1/4 179/1/4
f 179/1/4 176/1/4 180/1/4
f 177/1/4 178/1/4 181/1/4
f 181/1/4 178/1/4 182/1/4
f 180/1/4 181/1/4 183/1/4
f 183/1/4 181/1/4 184/1/4
f 184/1/4 181/1/4 185/1/4
f 185/1/4 181/1/4 186/1/4
f 184/1/4 185/1/4 187/1/4
f 187/1/4 185/1/4 188/1/4
f 189/1/4 190/1/4 191/1/4
f 191/1/4 190/1/4 192/1/4
f 195/2/5 194/2/5 193/2/5
f 196/2/5 194/2/5 195/2/5
f 199/1/5 198/1/5 197/1/5
f 200/1/5 198/1/5 199/1/5
f 201/1/5 199/1/5 197/1/5
f 202/1/5 199/1/5 201/1/5
f 203/1/5 198/1/5 200/1/5
f 204/1/5 198/1/5 203/1/5
f 205/1/5 203/1/5 202/1/5
f 206/1/5 203/1/5 205/1/5
f 212/3/5 208/3/5 207/3/5
f 213/1/5 209/1/5 208/1/5
f 213/3/5 208/3/5 212/3/5
f 214/3/5 210/3/5 209/3/5
f 214/1/5 209/1/5 213/1/5
f 215/3/5 210/3/5 214/3/5
f 217/1/5 212/1/5 211/1/5
f 218/1/5 212/1/5 217/1/5
f 221/1/5 216/1/5 215/1/5
f 222/1/5 216/1/5 221/1/5
f 223/1/5 219/1/5 218/1/5
f 224/1/5 219/1/5 223/1/5
f 225/1/5 221/1/5 220/1/5
f 226/1/5 221/1/5 225/1/5
f 227/1/5 225/1/5 224/1/5
f 228/1/5 225/1/5 227/1/5
f 233/1/5 230/1/5 229/1/5
f 234/1/5 230/1/5 233/1/5
f 235/1/5 232/1/5 231/1/5
f 236/1/5 232/1/5 235/1/5
f 237/2/6 238/2/6 239/2/6
f 239/2/6 238/2/6 240/2/6
f 241/2/6 242/2/6 243/2/6
f 243/2/6 242/2/6 244/2/6
f 245/1/6 246/1/6 249/1/6
f 249/1/6 246/1/6 250/1/6
f 247/1/6 248/1/6 251/1/6
f 251/1/6 248/1/6 252/1/6
f 253/3/6 254/3/6 258/3/6
f 254/1/6 255/1/6 259/1/6
f 258/3/6 254/3/6 259/3/6
f 255/3/6 256/3/6 260/3/6
f 259/1/6 255/1/6 260/1/6
f 260/3/6 256/3/6 261/3/6
f 257/1/6 258/1/6 263/1/6
f 263/1/6 258/1/6 264/1/6
f 261/1/6 262/1/6 267/1/6
f 267/1/6 262/1/6 268/1/6
f 264/1/6 265/1/6 269/1/6
f 269/1/6 265/1/6 270/1/6
f 266/1/6 267/1/6 271/1/6
f 271/1/6 267/1/6 272/1/6
f 270/1/6 271/1/6 273/1/6
f 273/1/6 271/1/6 274/1/6
f 275/1/6 276/1/6 277/1/6
f 277/1/6 276/1/6 278/1/6
f 275/1/6 277/1/6 279/1/6
f 279/1/6 277/1/6 280/1/6
f 278/1/6 276/1/6 281/1/6
f 281/1/6 276/1/6 282/1/6
f 280/1/6 281/1/6 283/1/6
f 283/1/6 281/1/6 284/1/6
f 285/1/6 286/1/6 287/1/6
f 287/1/6 286/1/6 288/1/6
