# MagicaVoxel @ Ephtracy

# group
o 

# material
mtllib Player.mtl
usemtl palette

# normals
vn -1 0 0
vn 1 0 0
vn 0 0 1
vn 0 0 -1
vn 0 -1 0
vn 0 1 0

# texcoords
vt 0.958984 0.5
vt 0.994141 0.5

# verts
v -0.5 0 0.6
v -0.5 0 0.5
v -0.5 0 -0.5
v -0.5 0 -0.6
v -0.5 0.4 0.5
v -0.5 0.4 0.4
v -0.5 0.4 -0.4
v -0.5 0.4 -0.5
v -0.5 0.6 0.6
v -0.5 0.6 0.5
v -0.5 0.6 0.4
v -0.5 0.6 0.3
v -0.5 0.6 -0.3
v -0.5 0.6 -0.4
v -0.5 0.6 -0.5
v -0.5 0.6 -0.6
v -0.5 0.7 0.5
v -0.5 0.7 0.4
v -0.5 0.7 -0.4
v -0.5 0.7 -0.5
v -0.5 0.8 0.4
v -0.5 0.8 0.3
v -0.5 0.8 -0.3
v -0.5 0.8 -0.4
v -0.4 0.7 0.5
v -0.4 0.7 0.4
v -0.4 0.7 -0.4
v -0.4 0.7 -0.5
v -0.4 0.8 0.5
v -0.4 0.8 0.4
v -0.4 0.8 0.3
v -0.4 0.8 -0.3
v -0.4 0.8 -0.4
v -0.4 0.8 -0.5
v -0.4 0.9 0.3
v -0.4 0.9 0.2
v -0.4 0.9 -0.2
v -0.4 0.9 -0.3
v -0.4 1 0.4
v -0.4 1 0.2
v -0.4 1 -0.2
v -0.4 1 -0.4
v -0.3 1.2 0.1
v -0.3 1.2 -0.1
v -0.3 1.3 0.2
v -0.3 1.3 0.1
v -0.3 1.3 -0.1
v -0.3 1.3 -0.3
v -0.3 1.4 0.3
v -0.3 1.4 0.2
v -0.3 2.1 0.3
v -0.3 2.1 -0.3
v -0.2 0.9 0.2
v -0.2 0.9 -0.2
v -0.2 1 0.3
v -0.2 1 0.2
v -0.2 1 0.1
v -0.2 1 -0.2
v -0.2 1 -0.3
v -0.2 1.1 0.3
v -0.2 1.1 0.2
v -0.2 1.1 0.1
v -0.2 1.2 0.1
v -0.2 1.2 -0.1
v -0.2 1.2 -0.3
v -0.2 1.2 -0.4
v -0.2 1.3 0.3
v -0.2 1.3 0.2
v -0.2 1.3 0.1
v -0.2 1.3 -0.1
v -0.2 1.3 -0.3
v -0.2 1.4 0.3
v -0.2 1.4 0.2
v -0.2 1.5 -0.3
v -0.2 1.5 -0.4
v -0.2 1.9 -0.3
v -0.2 1.9 -0.4
v -0.2 2.1 0.2
v -0.2 2.1 -0.3
v -0.2 2.1 -0.4
v -0.2 2.2 0.2
v -0.2 2.2 -0.3
v -0.1 1.2 0.3
v -0.1 1.2 0.2
v -0.1 1.3 0.3
v -0.1 1.3 0.2
v 0.1 0.9 0.3
v 0.1 0.9 -0.3
v 0.1 1 0.3
v 0.1 1 0.2
v 0.1 1 0.1
v 0.1 1 -0.2
v 0.1 1 -0.3
v 0.1 1.1 0.2
v 0.1 1.1 0.1
v 0.1 1.1 -0.2
v 0.2 0.9 0.4
v 0.2 0.9 0.3
v 0.2 0.9 -0.3
v 0.2 0.9 -0.4
v 0.2 1 0.4
v 0.2 1 0.3
v 0.2 1 -0.3
v 0.2 1 -0.4
v 0.3 0.5 0.5
v 0.3 0.5 0.4
v 0.3 0.5 -0.4
v 0.3 0.5 -0.5
v 0.3 0.7 0.4
v 0.3 0.7 0.3
v 0.3 0.7 -0.3
v 0.3 0.7 -0.4
v 0.3 0.8 0.5
v 0.3 0.8 0.4
v 0.3 0.8 -0.4
v 0.3 0.8 -0.5
v 0.3 0.9 0.4
v 0.3 0.9 0.3
v 0.3 0.9 -0.3
v 0.3 0.9 -0.4
v 0.4 0 0.6
v 0.4 0 0.5
v 0.4 0 -0.5
v 0.4 0 -0.6
v 0.4 0.4 0.5
v 0.4 0.4 0.4
v 0.4 0.4 -0.4
v 0.4 0.4 -0.5
v 0.4 0.5 0.5
v 0.4 0.5 0.4
v 0.4 0.5 -0.4
v 0.4 0.5 -0.5
v 0.4 0.6 0.6
v 0.4 0.6 0.5
v 0.4 0.6 0.4
v 0.4 0.6 0.3
v 0.4 0.6 -0.3
v 0.4 0.6 -0.4
v 0.4 0.6 -0.5
v 0.4 0.6 -0.6
v 0.4 0.7 0.4
v 0.4 0.7 0.3
v 0.4 0.7 -0.3
v 0.4 0.7 -0.4
v -0.4 0 0.6
v -0.4 0 0.5
v -0.4 0 -0.5
v -0.4 0 -0.6
v -0.4 0.4 0.5
v -0.4 0.4 0.4
v -0.4 0.4 -0.4
v -0.4 0.4 -0.5
v -0.4 0.5 0.5
v -0.4 0.5 0.4
v -0.4 0.5 -0.4
v -0.4 0.5 -0.5
v -0.4 0.6 0.6
v -0.4 0.6 0.5
v -0.4 0.6 0.4
v -0.4 0.6 0.3
v -0.4 0.6 -0.3
v -0.4 0.6 -0.4
v -0.4 0.6 -0.5
v -0.4 0.6 -0.6
v -0.4 0.7 0.4
v -0.4 0.7 0.3
v -0.4 0.7 -0.3
v -0.4 0.7 -0.4
v -0.3 0.5 0.5
v -0.3 0.5 0.4
v -0.3 0.5 -0.4
v -0.3 0.5 -0.5
v -0.3 0.7 0.4
v -0.3 0.7 0.3
v -0.3 0.7 -0.3
v -0.3 0.7 -0.4
v -0.3 0.8 0.5
v -0.3 0.8 0.4
v -0.3 0.8 -0.4
v -0.3 0.8 -0.5
v -0.3 0.9 0.4
v -0.3 0.9 0.3
v -0.3 0.9 -0.3
v -0.3 0.9 -0.4
v -0.2 0.9 0.4
v -0.2 0.9 0.3
v -0.2 0.9 -0.3
v -0.2 0.9 -0.4
v -0.2 1 0.4
v -0.2 1 0.3
v -0.2 1 -0.3
v -0.2 1 -0.4
v -0.1 0.9 0.3
v -0.1 0.9 -0.3
v -0.1 1 0.3
v -0.1 1 0.2
v -0.1 1 0.1
v -0.1 1 -0.2
v -0.1 1 -0.3
v -0.1 1.1 0.2
v -0.1 1.1 0.1
v -0.1 1.1 -0.2
v 0.1 1.2 0.3
v 0.1 1.2 0.2
v 0.1 1.3 0.3
v 0.1 1.3 0.2
v 0.2 0.9 0.2
v 0.2 0.9 -0.2
v 0.2 1 0.3
v 0.2 1 0.2
v 0.2 1 0.1
v 0.2 1 -0.2
v 0.2 1 -0.3
v 0.2 1.1 0.3
v 0.2 1.1 0.2
v 0.2 1.1 0.1
v 0.2 1.2 0.1
v 0.2 1.2 -0.1
v 0.2 1.2 -0.3
v 0.2 1.2 -0.4
v 0.2 1.3 0.3
v 0.2 1.3 0.2
v 0.2 1.3 0.1
v 0.2 1.3 -0.1
v 0.2 1.3 -0.3
v 0.2 1.4 0.3
v 0.2 1.4 0.2
v 0.2 1.5 -0.3
v 0.2 1.5 -0.4
v 0.2 1.9 -0.3
v 0.2 1.9 -0.4
v 0.2 2.1 0.2
v 0.2 2.1 -0.3
v 0.2 2.1 -0.4
v 0.2 2.2 0.2
v 0.2 2.2 -0.3
v 0.3 1.2 0.1
v 0.3 1.2 -0.1
v 0.3 1.3 0.2
v 0.3 1.3 0.1
v 0.3 1.3 -0.1
v 0.3 1.3 -0.3
v 0.3 1.4 0.3
v 0.3 1.4 0.2
v 0.3 2.1 0.3
v 0.3 2.1 -0.3
v 0.4 0.7 0.5
v 0.4 0.7 0.4
v 0.4 0.7 -0.4
v 0.4 0.7 -0.5
v 0.4 0.8 0.5
v 0.4 0.8 0.4
v 0.4 0.8 0.3
v 0.4 0.8 -0.3
v 0.4 0.8 -0.4
v 0.4 0.8 -0.5
v 0.4 0.9 0.3
v 0.4 0.9 0.2
v 0.4 0.9 -0.2
v 0.4 0.9 -0.3
v 0.4 1 0.4
v 0.4 1 0.2
v 0.4 1 -0.2
v 0.4 1 -0.4
v 0.5 0 0.6
v 0.5 0 0.5
v 0.5 0 -0.5
v 0.5 0 -0.6
v 0.5 0.4 0.5
v 0.5 0.4 0.4
v 0.5 0.4 -0.4
v 0.5 0.4 -0.5
v 0.5 0.6 0.6
v 0.5 0.6 0.5
v 0.5 0.6 0.4
v 0.5 0.6 0.3
v 0.5 0.6 -0.3
v 0.5 0.6 -0.4
v 0.5 0.6 -0.5
v 0.5 0.6 -0.6
v 0.5 0.7 0.5
v 0.5 0.7 0.4
v 0.5 0.7 -0.4
v 0.5 0.7 -0.5
v 0.5 0.8 0.4
v 0.5 0.8 0.3
v 0.5 0.8 -0.3
v 0.5 0.8 -0.4
v -0.5 0 0.6
v -0.5 0.6 0.6
v -0.4 0 0.6
v -0.4 0.6 0.6
v 0.4 0 0.6
v 0.4 0.6 0.6
v 0.5 0 0.6
v 0.5 0.6 0.6
v -0.5 0.6 0.5
v -0.5 0.7 0.5
v -0.4 0.5 0.5
v -0.4 0.6 0.5
v -0.4 0.7 0.5
v -0.4 0.8 0.5
v -0.3 0.5 0.5
v -0.3 0.8 0.5
v 0.3 0.5 0.5
v 0.3 0.8 0.5
v 0.4 0.5 0.5
v 0.4 0.6 0.5
v 0.4 0.7 0.5
v 0.4 0.8 0.5
v 0.5 0.6 0.5
v 0.5 0.7 0.5
v -0.5 0.7 0.4
v -0.5 0.8 0.4
v -0.4 0.7 0.4
v -0.4 0.8 0.4
v -0.4 1 0.4
v -0.3 0.8 0.4
v -0.3 0.9 0.4
v -0.2 0.9 0.4
v -0.2 1 0.4
v 0.2 0.9 0.4
v 0.2 1 0.4
v 0.3 0.8 0.4
v 0.3 0.9 0.4
v 0.4 0.7 0.4
v 0.4 0.8 0.4
v 0.4 1 0.4
v 0.5 0.7 0.4
v 0.5 0.8 0.4
v -0.3 1.4 0.3
v -0.3 2.1 0.3
v -0.2 0.9 0.3
v -0.2 1 0.3
v -0.2 1.1 0.3
v -0.2 1.3 0.3
v -0.2 1.4 0.3
v -0.1 0.9 0.3
v -0.1 1 0.3
v -0.1 1.2 0.3
v -0.1 1.3 0.3
v 0.1 0.9 0.3
v 0.1 1 0.3
v 0.1 1.2 0.3
v 0.1 1.3 0.3
v 0.2 0.9 0.3
v 0.2 1 0.3
v 0.2 1.1 0.3
v 0.2 1.3 0.3
v 0.2 1.4 0.3
v 0.3 1.4 0.3
v 0.3 2.1 0.3
v -0.3 1.3 0.2
v -0.3 1.4 0.2
v -0.2 1.1 0.2
v -0.2 1.3 0.2
v -0.2 1.4 0.2
v -0.2 2.1 0.2
v -0.2 2.2 0.2
v -0.1 1.2 0.2
v -0.1 1.3 0.2
v 0.1 1.2 0.2
v 0.1 1.3 0.2
v 0.2 1.1 0.2
v 0.2 1.3 0.2
v 0.2 1.4 0.2
v 0.2 2.1 0.2
v 0.2 2.2 0.2
v 0.3 1.3 0.2
v 0.3 1.4 0.2
v -0.3 1.2 0.1
v -0.3 1.3 0.1
v -0.2 1.2 0.1
v -0.2 1.3 0.1
v 0.2 1.2 0.1
v 0.2 1.3 0.1
v 0.3 1.2 0.1
v 0.3 1.3 0.1
v -0.4 0.9 -0.2
v -0.4 1 -0.2
v -0.2 0.9 -0.2
v -0.2 1 -0.2
v -0.1 1 -0.2
v -0.1 1.1 -0.2
v 0.1 1 -0.2
v 0.1 1.1 -0.2
v 0.2 0.9 -0.2
v 0.2 1 -0.2
v 0.4 0.9 -0.2
v 0.4 1 -0.2
v -0.5 0.6 -0.3
v -0.5 0.8 -0.3
v -0.4 0.6 -0.3
v -0.4 0.7 -0.3
v -0.4 0.8 -0.3
v -0.4 0.9 -0.3
v -0.3 0.7 -0.3
v -0.3 0.9 -0.3
v 0.3 0.7 -0.3
v 0.3 0.9 -0.3
v 0.4 0.6 -0.3
v 0.4 0.7 -0.3
v 0.4 0.8 -0.3
v 0.4 0.9 -0.3
v 0.5 0.6 -0.3
v 0.5 0.8 -0.3
v -0.5 0.4 -0.4
v -0.5 0.6 -0.4
v -0.4 0.4 -0.4
v -0.4 0.5 -0.4
v -0.4 0.6 -0.4
v -0.4 0.7 -0.4
v -0.3 0.5 -0.4
v -0.3 0.7 -0.4
v 0.3 0.5 -0.4
v 0.3 0.7 -0.4
v 0.4 0.4 -0.4
v 0.4 0.5 -0.4
v 0.4 0.6 -0.4
v 0.4 0.7 -0.4
v 0.5 0.4 -0.4
v 0.5 0.6 -0.4
v -0.5 0 -0.5
v -0.5 0.4 -0.5
v -0.4 0 -0.5
v -0.4 0.4 -0.5
v 0.4 0 -0.5
v 0.4 0.4 -0.5
v 0.5 0 -0.5
v 0.5 0.4 -0.5
v -0.5 0 0.5
v -0.5 0.4 0.5
v -0.4 0 0.5
v -0.4 0.4 0.5
v 0.4 0 0.5
v 0.4 0.4 0.5
v 0.5 0 0.5
v 0.5 0.4 0.5
v -0.5 0.4 0.4
v -0.5 0.6 0.4
v -0.4 0.4 0.4
v -0.4 0.5 0.4
v -0.4 0.6 0.4
v -0.4 0.7 0.4
v -0.3 0.5 0.4
v -0.3 0.7 0.4
v 0.3 0.5 0.4
v 0.3 0.7 0.4
v 0.4 0.4 0.4
v 0.4 0.5 0.4
v 0.4 0.6 0.4
v 0.4 0.7 0.4
v 0.5 0.4 0.4
v 0.5 0.6 0.4
v -0.5 0.6 0.3
v -0.5 0.8 0.3
v -0.4 0.6 0.3
v -0.4 0.7 0.3
v -0.4 0.8 0.3
v -0.4 0.9 0.3
v -0.3 0.7 0.3
v -0.3 0.9 0.3
v 0.3 0.7 0.3
v 0.3 0.9 0.3
v 0.4 0.6 0.3
v 0.4 0.7 0.3
v 0.4 0.8 0.3
v 0.4 0.9 0.3
v 0.5 0.6 0.3
v 0.5 0.8 0.3
v -0.4 0.9 0.2
v -0.4 1 0.2
v -0.2 0.9 0.2
v -0.2 1 0.2
v -0.1 1 0.2
v -0.1 1.1 0.2
v 0.1 1 0.2
v 0.1 1.1 0.2
v 0.2 0.9 0.2
v 0.2 1 0.2
v 0.4 0.9 0.2
v 0.4 1 0.2
v -0.3 1.2 -0.1
v -0.3 1.3 -0.1
v -0.2 1.2 -0.1
v -0.2 1.3 -0.1
v 0.2 1.2 -0.1
v 0.2 1.3 -0.1
v 0.3 1.2 -0.1
v 0.3 1.3 -0.1
v -0.3 1.3 -0.3
v -0.3 2.1 -0.3
v -0.2 0.9 -0.3
v -0.2 1 -0.3
v -0.2 1.2 -0.3
v -0.2 1.3 -0.3
v -0.2 1.5 -0.3
v -0.2 1.9 -0.3
v -0.2 2.1 -0.3
v -0.2 2.2 -0.3
v -0.1 0.9 -0.3
v -0.1 1 -0.3
v 0.1 0.9 -0.3
v 0.1 1 -0.3
v 0.2 0.9 -0.3
v 0.2 1 -0.3
v 0.2 1.2 -0.3
v 0.2 1.3 -0.3
v 0.2 1.5 -0.3
v 0.2 1.9 -0.3
v 0.2 2.1 -0.3
v 0.2 2.2 -0.3
v 0.3 1.3 -0.3
v 0.3 2.1 -0.3
v -0.5 0.7 -0.4
v -0.5 0.8 -0.4
v -0.4 0.7 -0.4
v -0.4 0.8 -0.4
v -0.4 1 -0.4
v -0.3 0.8 -0.4
v -0.3 0.9 -0.4
v -0.2 0.9 -0.4
v -0.2 1 -0.4
v -0.2 1.2 -0.4
v -0.2 1.5 -0.4
v -0.2 1.9 -0.4
v -0.2 2.1 -0.4
v -0.1 1.5 -0.4
v -0.1 1.9 -0.4
v 0.1 1.5 -0.4
v 0.1 1.9 -0.4
v 0.2 0.9 -0.4
v 0.2 1 -0.4
v 0.2 1.2 -0.4
v 0.2 1.5 -0.4
v 0.2 1.9 -0.4
v 0.2 2.1 -0.4
v 0.3 0.8 -0.4
v 0.3 0.9 -0.4
v 0.4 0.7 -0.4
v 0.4 0.8 -0.4
v 0.4 1 -0.4
v 0.5 0.7 -0.4
v 0.5 0.8 -0.4
v -0.5 0.6 -0.5
v -0.5 0.7 -0.5
v -0.4 0.5 -0.5
v -0.4 0.6 -0.5
v -0.4 0.7 -0.5
v -0.4 0.8 -0.5
v -0.3 0.5 -0.5
v -0.3 0.8 -0.5
v 0.3 0.5 -0.5
v 0.3 0.8 -0.5
v 0.4 0.5 -0.5
v 0.4 0.6 -0.5
v 0.4 0.7 -0.5
v 0.4 0.8 -0.5
v 0.5 0.6 -0.5
v 0.5 0.7 -0.5
v -0.5 0 -0.6
v -0.5 0.6 -0.6
v -0.4 0 -0.6
v -0.4 0.6 -0.6
v 0.4 0 -0.6
v 0.4 0.6 -0.6
v 0.5 0 -0.6
v 0.5 0.6 -0.6
v -0.5 0 0.6
v -0.4 0 0.6
v 0.4 0 0.6
v 0.5 0 0.6
v -0.5 0 0.5
v -0.4 0 0.5
v 0.4 0 0.5
v 0.5 0 0.5
v -0.5 0 -0.5
v -0.4 0 -0.5
v 0.4 0 -0.5
v 0.5 0 -0.5
v -0.5 0 -0.6
v -0.4 0 -0.6
v 0.4 0 -0.6
v 0.5 0 -0.6
v -0.5 0.4 0.5
v -0.4 0.4 0.5
v 0.4 0.4 0.5
v 0.5 0.4 0.5
v -0.5 0.4 0.4
v -0.4 0.4 0.4
v 0.4 0.4 0.4
v 0.5 0.4 0.4
v -0.5 0.4 -0.4
v -0.4 0.4 -0.4
v 0.4 0.4 -0.4
v 0.5 0.4 -0.4
v -0.5 0.4 -0.5
v -0.4 0.4 -0.5
v 0.4 0.4 -0.5
v 0.5 0.4 -0.5
v -0.4 0.5 0.5
v -0.3 0.5 0.5
v 0.3 0.5 0.5
v 0.4 0.5 0.5
v -0.4 0.5 0.4
v -0.3 0.5 0.4
v 0.3 0.5 0.4
v 0.4 0.5 0.4
v -0.4 0.5 -0.4
v -0.3 0.5 -0.4
v 0.3 0.5 -0.4
v 0.4 0.5 -0.4
v -0.4 0.5 -0.5
v -0.3 0.5 -0.5
v 0.3 0.5 -0.5
v 0.4 0.5 -0.5
v -0.5 0.6 0.4
v -0.4 0.6 0.4
v 0.4 0.6 0.4
v 0.5 0.6 0.4
v -0.5 0.6 0.3
v -0.4 0.6 0.3
v 0.4 0.6 0.3
v 0.5 0.6 0.3
v -0.5 0.6 -0.3
v -0.4 0.6 -0.3
v 0.4 0.6 -0.3
v 0.5 0.6 -0.3
v -0.5 0.6 -0.4
v -0.4 0.6 -0.4
v 0.4 0.6 -0.4
v 0.5 0.6 -0.4
v -0.4 0.7 0.4
v -0.3 0.7 0.4
v 0.3 0.7 0.4
v 0.4 0.7 0.4
v -0.4 0.7 0.3
v -0.3 0.7 0.3
v 0.3 0.7 0.3
v 0.4 0.7 0.3
v -0.4 0.7 -0.3
v -0.3 0.7 -0.3
v 0.3 0.7 -0.3
v 0.4 0.7 -0.3
v -0.4 0.7 -0.4
v -0.3 0.7 -0.4
v 0.3 0.7 -0.4
v 0.4 0.7 -0.4
v -0.3 0.9 0.4
v -0.2 0.9 0.4
v 0.2 0.9 0.4
v 0.3 0.9 0.4
v -0.4 0.9 0.3
v -0.3 0.9 0.3
v -0.2 0.9 0.3
v -0.1 0.9 0.3
v 0.1 0.9 0.3
v 0.2 0.9 0.3
v 0.3 0.9 0.3
v 0.4 0.9 0.3
v -0.4 0.9 0.2
v -0.2 0.9 0.2
v 0.2 0.9 0.2
v 0.4 0.9 0.2
v -0.4 0.9 -0.2
v -0.2 0.9 -0.2
v 0.2 0.9 -0.2
v 0.4 0.9 -0.2
v -0.4 0.9 -0.3
v -0.3 0.9 -0.3
v -0.2 0.9 -0.3
v -0.1 0.9 -0.3
v 0.1 0.9 -0.3
v 0.2 0.9 -0.3
v 0.3 0.9 -0.3
v 0.4 0.9 -0.3
v -0.3 0.9 -0.4
v -0.2 0.9 -0.4
v 0.2 0.9 -0.4
v 0.3 0.9 -0.4
v -0.1 1 0.3
v 0.1 1 0.3
v -0.1 1 0.2
v 0.1 1 0.2
v -0.1 1 -0.2
v 0.1 1 -0.2
v -0.1 1 -0.3
v 0.1 1 -0.3
v -0.1 1.1 0.2
v 0.1 1.1 0.2
v -0.1 1.1 0.1
v 0.1 1.1 0.1
v -0.1 1.1 -0.2
v 0.1 1.1 -0.2
v -0.1 1.2 0.3
v 0.1 1.2 0.3
v -0.1 1.2 0.2
v 0.1 1.2 0.2
v -0.3 1.2 0.1
v -0.2 1.2 0.1
v 0.2 1.2 0.1
v 0.3 1.2 0.1
v -0.3 1.2 -0.1
v -0.2 1.2 -0.1
v 0.2 1.2 -0.1
v 0.3 1.2 -0.1
v -0.2 1.2 -0.3
v 0.2 1.2 -0.3
v -0.2 1.2 -0.4
v 0.2 1.2 -0.4
v -0.2 1.3 0.3
v -0.1 1.3 0.3
v 0.1 1.3 0.3
v 0.2 1.3 0.3
v -0.3 1.3 0.2
v -0.2 1.3 0.2
v -0.1 1.3 0.2
v 0.1 1.3 0.2
v 0.2 1.3 0.2
v 0.3 1.3 0.2
v -0.3 1.3 0.1
v -0.2 1.3 0.1
v 0.2 1.3 0.1
v 0.3 1.3 0.1
v -0.3 1.3 -0.1
v -0.2 1.3 -0.1
v 0.2 1.3 -0.1
v 0.3 1.3 -0.1
v -0.3 1.3 -0.3
v -0.2 1.3 -0.3
v 0.2 1.3 -0.3
v 0.3 1.3 -0.3
v -0.3 1.4 0.3
v -0.2 1.4 0.3
v 0.2 1.4 0.3
v 0.3 1.4 0.3
v -0.3 1.4 0.2
v -0.2 1.4 0.2
v 0.2 1.4 0.2
v 0.3 1.4 0.2
v -0.5 0.6 0.6
v -0.4 0.6 0.6
v 0.4 0.6 0.6
v 0.5 0.6 0.6
v -0.5 0.6 0.5
v -0.4 0.6 0.5
v 0.4 0.6 0.5
v 0.5 0.6 0.5
v -0.5 0.6 -0.5
v -0.4 0.6 -0.5
v 0.4 0.6 -0.5
v 0.5 0.6 -0.5
v -0.5 0.6 -0.6
v -0.4 0.6 -0.6
v 0.4 0.6 -0.6
v 0.5 0.6 -0.6
v -0.5 0.7 0.5
v -0.4 0.7 0.5
v 0.4 0.7 0.5
v 0.5 0.7 0.5
v -0.5 0.7 0.4
v -0.4 0.7 0.4
v 0.4 0.7 0.4
v 0.5 0.7 0.4
v -0.5 0.7 -0.4
v -0.4 0.7 -0.4
v 0.4 0.7 -0.4
v 0.5 0.7 -0.4
v -0.5 0.7 -0.5
v -0.4 0.7 -0.5
v 0.4 0.7 -0.5
v 0.5 0.7 -0.5
v -0.4 0.8 0.5
v -0.3 0.8 0.5
v 0.3 0.8 0.5
v 0.4 0.8 0.5
v -0.5 0.8 0.4
v -0.4 0.8 0.4
v -0.3 0.8 0.4
v 0.3 0.8 0.4
v 0.4 0.8 0.4
v 0.5 0.8 0.4
v -0.5 0.8 0.3
v -0.4 0.8 0.3
v 0.4 0.8 0.3
v 0.5 0.8 0.3
v -0.5 0.8 -0.3
v -0.4 0.8 -0.3
v 0.4 0.8 -0.3
v 0.5 0.8 -0.3
v -0.5 0.8 -0.4
v -0.4 0.8 -0.4
v -0.3 0.8 -0.4
v 0.3 0.8 -0.4
v 0.4 0.8 -0.4
v 0.5 0.8 -0.4
v -0.4 0.8 -0.5
v -0.3 0.8 -0.5
v 0.3 0.8 -0.5
v 0.4 0.8 -0.5
v -0.4 1 0.4
v -0.2 1 0.4
v 0.2 1 0.4
v 0.4 1 0.4
v -0.2 1 0.3
v 0.2 1 0.3
v -0.4 1 0.2
v -0.2 1 0.2
v 0.2 1 0.2
v 0.4 1 0.2
v -0.4 1 -0.2
v -0.2 1 -0.2
v 0.2 1 -0.2
v 0.4 1 -0.2
v -0.2 1 -0.3
v 0.2 1 -0.3
v -0.4 1 -0.4
v -0.2 1 -0.4
v 0.2 1 -0.4
v 0.4 1 -0.4
v -0.2 1.1 0.3
v 0.2 1.1 0.3
v -0.2 1.1 0.2
v 0.2 1.1 0.2
v -0.3 2.1 0.3
v 0.3 2.1 0.3
v -0.2 2.1 0.2
v 0.2 2.1 0.2
v -0.3 2.1 -0.3
v -0.2 2.1 -0.3
v 0.2 2.1 -0.3
v 0.3 2.1 -0.3
v -0.2 2.1 -0.4
v 0.2 2.1 -0.4
v -0.2 2.2 0.2
v 0.2 2.2 0.2
v -0.2 2.2 -0.3
v 0.2 2.2 -0.3

# faces
f 5/2/1 2/2/1 1/2/1
f 8/2/1 4/2/1 3/2/1
f 9/2/1 6/2/1 5/2/1
f 9/2/1 5/2/1 1/2/1
f 10/2/1 6/2/1 9/2/1
f 11/2/1 6/2/1 10/2/1
f 14/2/1 8/2/1 7/2/1
f 15/2/1 4/2/1 8/2/1
f 15/2/1 8/2/1 14/2/1
f 16/2/1 4/2/1 15/2/1
f 17/2/1 12/2/1 11/2/1
f 17/2/1 11/2/1 10/2/1
f 18/2/1 12/2/1 17/2/1
f 19/2/1 14/2/1 13/2/1
f 19/2/1 15/2/1 14/2/1
f 20/2/1 15/2/1 19/2/1
f 21/2/1 12/2/1 18/2/1
f 22/2/1 12/2/1 21/2/1
f 23/2/1 19/2/1 13/2/1
f 24/2/1 19/2/1 23/2/1
f 29/2/1 26/2/1 25/2/1
f 30/2/1 26/2/1 29/2/1
f 33/2/1 28/2/1 27/2/1
f 34/2/1 28/2/1 33/2/1
f 35/2/1 31/2/1 30/2/1
f 38/2/1 33/2/1 32/2/1
f 39/2/1 36/2/1 35/2/1
f 39/2/1 35/2/1 30/2/1
f 40/2/1 36/2/1 39/2/1
f 41/2/1 38/2/1 37/2/1
f 42/2/1 33/2/1 38/2/1
f 42/2/1 38/2/1 41/2/1
f 46/1/1 44/1/1 43/1/1
f 47/1/1 44/1/1 46/1/1
f 50/1/1 46/1/1 45/1/1
f 50/1/1 48/1/1 47/1/1
f 50/1/1 47/1/1 46/1/1
f 51/1/1 50/1/1 49/1/1
f 52/1/1 48/1/1 50/1/1
f 52/1/1 50/1/1 51/1/1
f 56/2/1 54/2/1 53/2/1
f 57/2/1 54/2/1 56/2/1
f 58/2/1 54/2/1 57/2/1
f 60/2/1 56/2/1 55/2/1
f 60/2/1 57/2/1 56/2/1
f 61/2/1 57/2/1 60/2/1
f 62/1/1 59/1/1 58/1/1
f 62/2/1 57/2/1 61/2/1
f 62/1/1 58/1/1 57/1/1
f 63/1/1 59/1/1 62/1/1
f 63/1/1 62/1/1 61/1/1
f 64/1/1 59/1/1 63/1/1
f 65/1/1 59/1/1 64/1/1
f 68/1/1 63/1/1 61/1/1
f 69/1/1 63/1/1 68/1/1
f 70/1/1 65/1/1 64/1/1
f 70/1/1 66/1/1 65/1/1
f 71/1/1 66/1/1 70/1/1
f 72/1/1 68/1/1 67/1/1
f 73/1/1 68/1/1 72/1/1
f 74/1/1 66/1/1 71/1/1
f 75/1/1 66/1/1 74/1/1
f 76/2/1 75/2/1 74/2/1
f 77/2/1 75/2/1 76/2/1
f 79/1/1 77/1/1 76/1/1
f 80/1/1 77/1/1 79/1/1
f 81/1/1 79/1/1 78/1/1
f 82/1/1 79/1/1 81/1/1
f 85/1/1 84/1/1 83/1/1
f 86/1/1 84/1/1 85/1/1
f 89/2/1 88/2/1 87/2/1
f 90/2/1 88/2/1 89/2/1
f 91/2/1 88/2/1 90/2/1
f 92/2/1 88/2/1 91/2/1
f 93/2/1 88/2/1 92/2/1
f 94/2/1 91/2/1 90/2/1
f 95/1/1 92/1/1 91/1/1
f 95/2/1 91/2/1 94/2/1
f 96/1/1 92/1/1 95/1/1
f 101/2/1 98/2/1 97/2/1
f 102/2/1 98/2/1 101/2/1
f 103/2/1 100/2/1 99/2/1
f 104/2/1 100/2/1 103/2/1
f 109/2/1 106/2/1 105/2/1
f 112/2/1 108/2/1 107/2/1
f 113/2/1 110/2/1 109/2/1
f 113/2/1 109/2/1 105/2/1
f 114/2/1 110/2/1 113/2/1
f 115/2/1 112/2/1 111/2/1
f 115/2/1 108/2/1 112/2/1
f 116/2/1 108/2/1 115/2/1
f 117/2/1 110/2/1 114/2/1
f 118/2/1 110/2/1 117/2/1
f 119/2/1 115/2/1 111/2/1
f 120/2/1 115/2/1 119/2/1
f 125/2/1 122/2/1 121/2/1
f 128/2/1 124/2/1 123/2/1
f 129/2/1 126/2/1 125/2/1
f 129/2/1 125/2/1 121/2/1
f 130/2/1 126/2/1 129/2/1
f 131/2/1 128/2/1 127/2/1
f 132/2/1 124/2/1 128/2/1
f 132/2/1 128/2/1 131/2/1
f 133/2/1 129/2/1 121/2/1
f 134/2/1 129/2/1 133/2/1
f 139/2/1 124/2/1 132/2/1
f 140/2/1 124/2/1 139/2/1
f 141/2/1 136/2/1 135/2/1
f 142/2/1 136/2/1 141/2/1
f 143/2/1 138/2/1 137/2/1
f 144/2/1 138/2/1 143/2/1
f 145/2/2 146/2/2 149/2/2
f 147/2/2 148/2/2 152/2/2
f 149/2/2 150/2/2 153/2/2
f 145/2/2 149/2/2 153/2/2
f 153/2/2 150/2/2 154/2/2
f 151/2/2 152/2/2 155/2/2
f 152/2/2 148/2/2 156/2/2
f 155/2/2 152/2/2 156/2/2
f 145/2/2 153/2/2 157/2/2
f 157/2/2 153/2/2 158/2/2
f 156/2/2 148/2/2 163/2/2
f 163/2/2 148/2/2 164/2/2
f 159/2/2 160/2/2 165/2/2
f 165/2/2 160/2/2 166/2/2
f 161/2/2 162/2/2 167/2/2
f 167/2/2 162/2/2 168/2/2
f 169/2/2 170/2/2 173/2/2
f 171/2/2 172/2/2 176/2/2
f 173/2/2 174/2/2 177/2/2
f 169/2/2 173/2/2 177/2/2
f 177/2/2 174/2/2 178/2/2
f 175/2/2 176/2/2 179/2/2
f 176/2/2 172/2/2 179/2/2
f 179/2/2 172/2/2 180/2/2
f 178/2/2 174/2/2 181/2/2
f 181/2/2 174/2/2 182/2/2
f 175/2/2 179/2/2 183/2/2
f 183/2/2 179/2/2 184/2/2
f 185/2/2 186/2/2 189/2/2
f 189/2/2 186/2/2 190/2/2
f 187/2/2 188/2/2 191/2/2
f 191/2/2 188/2/2 192/2/2
f 193/2/2 194/2/2 195/2/2
f 195/2/2 194/2/2 196/2/2
f 196/2/2 194/2/2 197/2/2
f 197/2/2 194/2/2 198/2/2
f 198/2/2 194/2/2 199/2/2
f 196/2/2 197/2/2 200/2/2
f 197/1/2 198/1/2 201/1/2
f 200/2/2 197/2/2 201/2/2
f 201/1/2 198/1/2 202/1/2
f 203/1/2 204/1/2 205/1/2
f 205/1/2 204/1/2 206/1/2
f 207/2/2 208/2/2 210/2/2
f 210/2/2 208/2/2 211/2/2
f 211/2/2 208/2/2 212/2/2
f 209/2/2 210/2/2 214/2/2
f 210/2/2 211/2/2 214/2/2
f 214/2/2 211/2/2 215/2/2
f 212/1/2 213/1/2 216/1/2
f 215/2/2 211/2/2 216/2/2
f 211/1/2 212/1/2 216/1/2
f 216/1/2 213/1/2 217/1/2
f 215/1/2 216/1/2 217/1/2
f 217/1/2 213/1/2 218/1/2
f 218/1/2 213/1/2 219/1/2
f 215/1/2 217/1/2 222/1/2
f 222/1/2 217/1/2 223/1/2
f 218/1/2 219/1/2 224/1/2
f 219/1/2 220/1/2 224/1/2
f 224/1/2 220/1/2 225/1/2
f 221/1/2 222/1/2 226/1/2
f 226/1/2 222/1/2 227/1/2
f 225/1/2 220/1/2 228/1/2
f 228/1/2 220/1/2 229/1/2
f 228/2/2 229/2/2 230/2/2
f 230/2/2 229/2/2 231/2/2
f 230/1/2 231/1/2 233/1/2
f 233/1/2 231/1/2 234/1/2
f 232/1/2 233/1/2 235/1/2
f 235/1/2 233/1/2 236/1/2
f 237/1/2 238/1/2 240/1/2
f 240/1/2 238/1/2 241/1/2
f 239/1/2 240/1/2 244/1/2
f 241/1/2 242/1/2 244/1/2
f 240/1/2 241/1/2 244/1/2
f 243/1/2 244/1/2 245/1/2
f 244/1/2 242/1/2 246/1/2
f 245/1/2 244/1/2 246/1/2
f 247/2/2 248/2/2 251/2/2
f 251/2/2 248/2/2 252/2/2
f 249/2/2 250/2/2 255/2/2
f 255/2/2 250/2/2 256/2/2
f 252/2/2 253/2/2 257/2/2
f 254/2/2 255/2/2 260/2/2
f 257/2/2 258/2/2 261/2/2
f 252/2/2 257/2/2 261/2/2
f 261/2/2 258/2/2 262/2/2
f 259/2/2 260/2/2 263/2/2
f 260/2/2 255/2/2 264/2/2
f 263/2/2 260/2/2 264/2/2
f 265/2/2 266/2/2 269/2/2
f 267/2/2 268/2/2 272/2/2
f 269/2/2 270/2/2 273/2/2
f 265/2/2 269/2/2 273/2/2
f 273/2/2 270/2/2 274/2/2
f 274/2/2 270/2/2 275/2/2
f 271/2/2 272/2/2 278/2/2
f 272/2/2 268/2/2 279/2/2
f 278/2/2 272/2/2 279/2/2
f 279/2/2 268/2/2 280/2/2
f 275/2/2 276/2/2 281/2/2
f 274/2/2 275/2/2 281/2/2
f 281/2/2 276/2/2 282/2/2
f 277/2/2 278/2/2 283/2/2
f 278/2/2 279/2/2 283/2/2
f 283/2/2 279/2/2 284/2/2
f 282/2/2 276/2/2 285/2/2
f 285/2/2 276/2/2 286/2/2
f 277/2/2 283/2/2 287/2/2
f 287/2/2 283/2/2 288/2/2
f 291/2/3 290/2/3 289/2/3
f 292/2/3 290/2/3 291/2/3
f 295/2/3 294/2/3 293/2/3
f 296/2/3 294/2/3 295/2/3
f 300/2/3 298/2/3 297/2/3
f 301/2/3 298/2/3 300/2/3
f 303/2/3 300/2/3 299/2/3
f 303/2/3 302/2/3 301/2/3
f 303/2/3 301/2/3 300/2/3
f 304/2/3 302/2/3 303/2/3
f 307/2/3 306/2/3 305/2/3
f 308/2/3 306/2/3 307/2/3
f 309/2/3 306/2/3 308/2/3
f 310/2/3 306/2/3 309/2/3
f 311/2/3 309/2/3 308/2/3
f 312/2/3 309/2/3 311/2/3
f 315/2/3 314/2/3 313/2/3
f 316/2/3 314/2/3 315/2/3
f 318/2/3 317/2/3 316/2/3
f 319/2/3 317/2/3 318/2/3
f 320/2/3 317/2/3 319/2/3
f 321/2/3 317/2/3 320/2/3
f 325/2/3 323/2/3 322/2/3
f 327/2/3 325/2/3 324/2/3
f 328/2/3 323/2/3 325/2/3
f 328/2/3 325/2/3 327/2/3
f 329/2/3 327/2/3 326/2/3
f 330/2/3 327/2/3 329/2/3
f 337/1/3 332/1/3 331/1/3
f 338/2/3 335/2/3 334/2/3
f 338/2/3 334/2/3 333/2/3
f 339/2/3 335/2/3 338/2/3
f 341/1/3 337/1/3 336/1/3
f 343/2/3 335/2/3 339/2/3
f 344/1/3 341/1/3 340/1/3
f 345/1/3 337/1/3 341/1/3
f 345/1/3 341/1/3 344/1/3
f 346/2/3 343/2/3 342/2/3
f 347/2/3 335/2/3 343/2/3
f 347/2/3 343/2/3 346/2/3
f 348/2/3 335/2/3 347/2/3
f 349/1/3 337/1/3 345/1/3
f 350/1/3 332/1/3 337/1/3
f 350/1/3 337/1/3 349/1/3
f 351/1/3 332/1/3 350/1/3
f 352/1/3 332/1/3 351/1/3
f 356/1/3 354/1/3 353/1/3
f 357/1/3 354/1/3 356/1/3
f 360/1/3 356/1/3 355/1/3
f 361/1/3 356/1/3 360/1/3
f 362/1/3 360/1/3 355/1/3
f 364/1/3 362/1/3 355/1/3
f 364/1/3 363/1/3 362/1/3
f 365/1/3 363/1/3 364/1/3
f 367/1/3 359/1/3 358/1/3
f 368/1/3 359/1/3 367/1/3
f 369/1/3 366/1/3 365/1/3
f 370/1/3 366/1/3 369/1/3
f 373/1/3 372/1/3 371/1/3
f 374/1/3 372/1/3 373/1/3
f 377/1/3 376/1/3 375/1/3
f 378/1/3 376/1/3 377/1/3
f 381/2/3 380/2/3 379/2/3
f 382/2/3 380/2/3 381/2/3
f 385/1/3 384/1/3 383/1/3
f 386/1/3 384/1/3 385/1/3
f 389/2/3 388/2/3 387/2/3
f 390/2/3 388/2/3 389/2/3
f 393/2/3 392/2/3 391/2/3
f 394/2/3 392/2/3 393/2/3
f 395/2/3 392/2/3 394/2/3
f 397/2/3 396/2/3 395/2/3
f 397/2/3 395/2/3 394/2/3
f 398/2/3 396/2/3 397/2/3
f 402/2/3 400/2/3 399/2/3
f 403/2/3 400/2/3 402/2/3
f 404/2/3 400/2/3 403/2/3
f 405/2/3 402/2/3 401/2/3
f 405/2/3 403/2/3 402/2/3
f 406/2/3 403/2/3 405/2/3
f 409/2/3 408/2/3 407/2/3
f 410/2/3 408/2/3 409/2/3
f 411/2/3 408/2/3 410/2/3
f 413/2/3 412/2/3 411/2/3
f 413/2/3 411/2/3 410/2/3
f 414/2/3 412/2/3 413/2/3
f 418/2/3 416/2/3 415/2/3
f 419/2/3 416/2/3 418/2/3
f 420/2/3 416/2/3 419/2/3
f 421/2/3 418/2/3 417/2/3
f 421/2/3 419/2/3 418/2/3
f 422/2/3 419/2/3 421/2/3
f 425/2/3 424/2/3 423/2/3
f 426/2/3 424/2/3 425/2/3
f 429/2/3 428/2/3 427/2/3
f 430/2/3 428/2/3 429/2/3
f 431/2/4 432/2/4 433/2/4
f 433/2/4 432/2/4 434/2/4
f 435/2/4 436/2/4 437/2/4
f 437/2/4 436/2/4 438/2/4
f 439/2/4 440/2/4 441/2/4
f 441/2/4 440/2/4 442/2/4
f 442/2/4 440/2/4 443/2/4
f 443/2/4 444/2/4 445/2/4
f 442/2/4 443/2/4 445/2/4
f 445/2/4 444/2/4 446/2/4
f 447/2/4 448/2/4 450/2/4
f 450/2/4 448/2/4 451/2/4
f 451/2/4 448/2/4 452/2/4
f 449/2/4 450/2/4 453/2/4
f 450/2/4 451/2/4 453/2/4
f 453/2/4 451/2/4 454/2/4
f 455/2/4 456/2/4 457/2/4
f 457/2/4 456/2/4 458/2/4
f 458/2/4 456/2/4 459/2/4
f 459/2/4 460/2/4 461/2/4
f 458/2/4 459/2/4 461/2/4
f 461/2/4 460/2/4 462/2/4
f 463/2/4 464/2/4 466/2/4
f 466/2/4 464/2/4 467/2/4
f 467/2/4 464/2/4 468/2/4
f 465/2/4 466/2/4 469/2/4
f 466/2/4 467/2/4 469/2/4
f 469/2/4 467/2/4 470/2/4
f 471/2/4 472/2/4 473/2/4
f 473/2/4 472/2/4 474/2/4
f 475/2/4 476/2/4 477/2/4
f 477/2/4 476/2/4 478/2/4
f 479/2/4 480/2/4 481/2/4
f 481/2/4 480/2/4 482/2/4
f 483/1/4 484/1/4 485/1/4
f 485/1/4 484/1/4 486/1/4
f 487/1/4 488/1/4 489/1/4
f 489/1/4 488/1/4 490/1/4
f 491/1/4 492/1/4 496/1/4
f 496/1/4 492/1/4 497/1/4
f 497/1/4 492/1/4 498/1/4
f 498/1/4 492/1/4 499/1/4
f 493/2/4 494/2/4 501/2/4
f 494/1/4 495/1/4 502/1/4
f 501/2/4 494/2/4 502/2/4
f 502/1/4 495/1/4 504/1/4
f 503/2/4 504/2/4 505/2/4
f 504/1/4 495/1/4 506/1/4
f 505/2/4 504/2/4 506/2/4
f 506/1/4 495/1/4 507/1/4
f 499/1/4 500/1/4 511/1/4
f 511/1/4 500/1/4 512/1/4
f 509/1/4 510/1/4 513/1/4
f 510/1/4 511/1/4 513/1/4
f 508/1/4 509/1/4 513/1/4
f 513/1/4 511/1/4 514/1/4
f 515/2/4 516/2/4 517/2/4
f 517/2/4 516/2/4 518/2/4
f 518/2/4 519/2/4 520/2/4
f 520/2/4 519/2/4 521/2/4
f 521/2/4 519/2/4 522/2/4
f 522/2/4 519/2/4 523/2/4
f 524/1/4 525/1/4 528/1/4
f 525/2/4 526/2/4 528/2/4
f 526/1/4 527/1/4 529/1/4
f 528/2/4 526/2/4 529/2/4
f 524/1/4 528/1/4 530/1/4
f 528/1/4 529/1/4 530/1/4
f 529/1/4 527/1/4 531/1/4
f 530/1/4 529/1/4 531/1/4
f 524/1/4 530/1/4 534/1/4
f 530/2/4 531/2/4 535/2/4
f 534/1/4 530/1/4 535/1/4
f 531/1/4 527/1/4 536/1/4
f 535/2/4 531/2/4 536/2/4
f 536/1/4 527/1/4 537/1/4
f 532/2/4 533/2/4 539/2/4
f 538/2/4 539/2/4 541/2/4
f 539/2/4 533/2/4 542/2/4
f 541/2/4 539/2/4 542/2/4
f 540/2/4 541/2/4 543/2/4
f 543/2/4 541/2/4 544/2/4
f 545/2/4 546/2/4 548/2/4
f 548/2/4 546/2/4 549/2/4
f 547/2/4 548/2/4 551/2/4
f 549/2/4 550/2/4 551/2/4
f 548/2/4 549/2/4 551/2/4
f 551/2/4 550/2/4 552/2/4
f 553/2/4 554/2/4 555/2/4
f 555/2/4 554/2/4 556/2/4
f 556/2/4 554/2/4 557/2/4
f 557/2/4 554/2/4 558/2/4
f 556/2/4 557/2/4 559/2/4
f 559/2/4 557/2/4 560/2/4
f 561/2/4 562/2/4 563/2/4
f 563/2/4 562/2/4 564/2/4
f 565/2/4 566/2/4 567/2/4
f 567/2/4 566/2/4 568/2/4
f 573/2/5 570/2/5 569/2/5
f 574/2/5 570/2/5 573/2/5
f 575/2/5 572/2/5 571/2/5
f 576/2/5 572/2/5 575/2/5
f 581/2/5 578/2/5 577/2/5
f 582/2/5 578/2/5 581/2/5
f 583/2/5 580/2/5 579/2/5
f 584/2/5 580/2/5 583/2/5
f 589/2/5 586/2/5 585/2/5
f 590/2/5 586/2/5 589/2/5
f 591/2/5 588/2/5 587/2/5
f 592/2/5 588/2/5 591/2/5
f 597/2/5 594/2/5 593/2/5
f 598/2/5 594/2/5 597/2/5
f 599/2/5 596/2/5 595/2/5
f 600/2/5 596/2/5 599/2/5
f 605/2/5 602/2/5 601/2/5
f 606/2/5 602/2/5 605/2/5
f 607/2/5 604/2/5 603/2/5
f 608/2/5 604/2/5 607/2/5
f 613/2/5 610/2/5 609/2/5
f 614/2/5 610/2/5 613/2/5
f 615/2/5 612/2/5 611/2/5
f 616/2/5 612/2/5 615/2/5
f 621/2/5 618/2/5 617/2/5
f 622/2/5 618/2/5 621/2/5
f 623/2/5 620/2/5 619/2/5
f 624/2/5 620/2/5 623/2/5
f 629/2/5 626/2/5 625/2/5
f 630/2/5 626/2/5 629/2/5
f 631/2/5 628/2/5 627/2/5
f 632/2/5 628/2/5 631/2/5
f 637/2/5 634/2/5 633/2/5
f 638/2/5 634/2/5 637/2/5
f 639/2/5 636/2/5 635/2/5
f 640/2/5 636/2/5 639/2/5
f 645/2/5 642/2/5 641/2/5
f 646/2/5 642/2/5 645/2/5
f 647/2/5 644/2/5 643/2/5
f 648/2/5 644/2/5 647/2/5
f 654/2/5 650/2/5 649/2/5
f 655/2/5 650/2/5 654/2/5
f 658/2/5 652/2/5 651/2/5
f 659/2/5 652/2/5 658/2/5
f 661/2/5 656/2/5 655/2/5
f 661/2/5 654/2/5 653/2/5
f 661/2/5 655/2/5 654/2/5
f 662/2/5 656/2/5 661/2/5
f 663/2/5 660/2/5 659/2/5
f 663/2/5 659/2/5 658/2/5
f 663/2/5 658/2/5 657/2/5
f 664/2/5 660/2/5 663/2/5
f 666/2/5 656/2/5 662/2/5
f 667/2/5 663/2/5 657/2/5
f 669/2/5 666/2/5 665/2/5
f 670/2/5 666/2/5 669/2/5
f 671/2/5 656/2/5 666/2/5
f 671/2/5 666/2/5 670/2/5
f 672/2/5 656/2/5 671/2/5
f 673/2/5 668/2/5 667/2/5
f 673/2/5 667/2/5 657/2/5
f 674/2/5 668/2/5 673/2/5
f 675/2/5 668/2/5 674/2/5
f 676/2/5 668/2/5 675/2/5
f 677/2/5 671/2/5 670/2/5
f 678/2/5 671/2/5 677/2/5
f 679/2/5 675/2/5 674/2/5
f 680/2/5 675/2/5 679/2/5
f 683/2/5 682/2/5 681/2/5
f 684/2/5 682/2/5 683/2/5
f 687/1/5 686/1/5 685/1/5
f 688/1/5 686/1/5 687/1/5
f 691/1/5 690/1/5 689/1/5
f 692/1/5 690/1/5 691/1/5
f 693/1/5 692/1/5 691/1/5
f 694/1/5 692/1/5 693/1/5
f 697/1/5 696/1/5 695/1/5
f 698/1/5 696/1/5 697/1/5
f 703/1/5 700/1/5 699/1/5
f 704/1/5 700/1/5 703/1/5
f 705/1/5 702/1/5 701/1/5
f 706/1/5 702/1/5 705/1/5
f 709/1/5 708/1/5 707/1/5
f 710/1/5 708/1/5 709/1/5
f 716/1/5 712/1/5 711/1/5
f 717/1/5 712/1/5 716/1/5
f 718/1/5 714/1/5 713/1/5
f 719/1/5 714/1/5 718/1/5
f 721/1/5 716/1/5 715/1/5
f 722/1/5 716/1/5 721/1/5
f 723/1/5 720/1/5 719/1/5
f 724/1/5 720/1/5 723/1/5
f 729/1/5 726/1/5 725/1/5
f 730/1/5 726/1/5 729/1/5
f 731/1/5 728/1/5 727/1/5
f 732/1/5 728/1/5 731/1/5
f 737/1/5 734/1/5 733/1/5
f 738/1/5 734/1/5 737/1/5
f 739/1/5 736/1/5 735/1/5
f 740/1/5 736/1/5 739/1/5
f 741/2/6 742/2/6 745/2/6
f 745/2/6 742/2/6 746/2/6
f 743/2/6 744/2/6 747/2/6
f 747/2/6 744/2/6 748/2/6
f 749/2/6 750/2/6 753/2/6
f 753/2/6 750/2/6 754/2/6
f 751/2/6 752/2/6 755/2/6
f 755/2/6 752/2/6 756/2/6
f 757/2/6 758/2/6 761/2/6
f 761/2/6 758/2/6 762/2/6
f 759/2/6 760/2/6 763/2/6
f 763/2/6 760/2/6 764/2/6
f 765/2/6 766/2/6 769/2/6
f 769/2/6 766/2/6 770/2/6
f 767/2/6 768/2/6 771/2/6
f 771/2/6 768/2/6 772/2/6
f 773/2/6 774/2/6 778/2/6
f 778/2/6 774/2/6 779/2/6
f 775/2/6 776/2/6 780/2/6
f 780/2/6 776/2/6 781/2/6
f 777/2/6 778/2/6 783/2/6
f 783/2/6 778/2/6 784/2/6
f 781/2/6 782/2/6 785/2/6
f 785/2/6 782/2/6 786/2/6
f 787/2/6 788/2/6 791/2/6
f 791/2/6 788/2/6 792/2/6
f 789/2/6 790/2/6 795/2/6
f 795/2/6 790/2/6 796/2/6
f 792/2/6 793/2/6 797/2/6
f 797/2/6 793/2/6 798/2/6
f 794/2/6 795/2/6 799/2/6
f 799/2/6 795/2/6 800/2/6
f 801/2/6 802/2/6 805/2/6
f 803/2/6 804/2/6 806/2/6
f 801/2/6 805/2/6 807/2/6
f 807/2/6 805/2/6 808/2/6
f 806/2/6 804/2/6 809/2/6
f 809/2/6 804/2/6 810/2/6
f 811/2/6 812/2/6 815/2/6
f 813/2/6 814/2/6 816/2/6
f 811/2/6 815/2/6 817/2/6
f 817/2/6 815/2/6 818/2/6
f 816/2/6 814/2/6 819/2/6
f 819/2/6 814/2/6 820/2/6
f 821/2/6 822/2/6 823/2/6
f 823/2/6 822/2/6 824/2/6
f 825/1/6 826/1/6 827/1/6
f 827/1/6 826/1/6 828/1/6
f 825/1/6 827/1/6 829/1/6
f 829/1/6 827/1/6 830/1/6
f 828/1/6 826/1/6 831/1/6
f 831/1/6 826/1/6 832/1/6
f 830/1/6 831/1/6 833/1/6
f 833/1/6 831/1/6 834/1/6
f 835/1/6 836/1/6 837/1/6
f 837/1/6 836/1/6 838/1/6
